<?xml version="1.0" encoding="utf-8"?>
<!-- Generator: Adobe Illustrator 26.0.1, SVG Export Plug-In . SVG Version: 6.00 Build 0)  -->
<svg version="1.1" id="Слой_1" xmlns="http://www.w3.org/2000/svg" xmlns:xlink="http://www.w3.org/1999/xlink" x="0px" y="0px"
	 viewBox="0 0 800 450" style="enable-background:new 0 0 800 450;" xml:space="preserve">
<style type="text/css">
	.st0{fill:#FFFFFF;}
</style>
<rect width="800" height="450"/>
<path class="st0" d="M79.9,22.2C67.6,22.2,56.7,29.8,53,41c-7.9,1.6-14.7,6.3-18.7,13c-6.1,10.2-4.7,23.1,3.5,31.8
	c-2.5,7.3-1.7,15.4,2.4,22c6.1,10.3,18.4,15.5,30.4,13.1c5.3,5.8,13,9.1,21,9.1c12.3,0,23.1-7.6,26.9-18.8c7.9-1.6,14.7-6.3,18.6-13
	c6.2-10.2,4.8-23.1-3.5-31.8v0c2.5-7.3,1.7-15.4-2.4-22.1c-6.1-10.2-18.4-15.5-30.4-13C95.6,25.4,87.9,22.1,79.9,22.2z M79.9,29.2
	L79.9,29.2c4.9,0,9.6,1.7,13.4,4.7c-0.2,0.1-0.5,0.3-0.7,0.4L70.3,46.6c-1.1,0.6-1.8,1.8-1.8,3.1v29.1l-9.6-5.3v-24
	C58.9,38.3,68.3,29.2,79.9,29.2L79.9,29.2z M106.8,37.6c7.5,0,14.5,3.8,18.2,10.1c2.4,4.1,3.3,8.9,2.5,13.5
	c-0.2-0.1-0.5-0.3-0.6-0.4l-22.3-12.4c-1.1-0.6-2.5-0.6-3.7,0L74.7,63V52.4l21.6-12C99.5,38.6,103.1,37.6,106.8,37.6L106.8,37.6z
	 M51.6,48.7v25.5c0,1.3,0.7,2.4,1.8,3.1l26.1,14.5l-9.6,5.4l-21.5-12c-10-5.6-13.5-17.9-7.7-27.6C43.1,53.5,47,50.3,51.6,48.7
	L51.6,48.7z M101.6,55l21.6,12c10.1,5.6,13.5,17.9,7.7,27.6l0,0c-2.5,4.1-6.3,7.2-10.9,8.8V77.9c0-1.3-0.7-2.4-1.8-3.1L92,60.3
	L101.6,55z M85.7,63.8l11,6.1v12.2l-11,6.1l-11-6.1V69.9L85.7,63.8z M103,73.4l9.6,5.3v24c0,11.2-9.4,20.2-21,20.2v0
	c-4.9,0-9.7-1.6-13.4-4.7c0.2-0.1,0.5-0.3,0.7-0.4l22.3-12.4c1.1-0.6,1.9-1.8,1.8-3.1L103,73.4z M96.8,89.1v10.7l-21.6,12
	c-10.1,5.6-22.9,2.3-28.7-7.4h0c-2.5-4.1-3.3-8.9-2.5-13.5c0.2,0.1,0.5,0.3,0.6,0.4L67,103.7c1.1,0.6,2.5,0.6,3.7,0L96.8,89.1z"/>
<g>
	<path class="st0" d="M694,325.4l13.2-74.4c12.6,0,16.6,1.4,17.2,7c0,0,8.5-3.2,12.7-9.6c-16.6-7.7-33.4-8.1-33.4-8.1l-9.8,11.9l0,0
		l-9.8-11.9c0,0-16.7,0.3-33.4,8.1c4.3,6.4,12.7,9.6,12.7,9.6c0.6-5.6,4.5-7,17.1-7L694,325.4"/>
	<path class="st0" d="M694,237c13.5-0.1,28.9,2.1,44.6,9c2.1-3.8,2.6-5.5,2.6-5.5c-17.2-6.8-33.4-9.2-47.3-9.2
		c-13.9,0.1-30,2.4-47.3,9.2c0,0,0.8,2.1,2.6,5.5C665.1,239.1,680.5,236.9,694,237L694,237"/>
</g>
<path id="path21" class="st0" d="M262.1,308c0,0,12.7-18.7,38.1-20.7v-6.8c-28.1,2.3-52.4,26.1-52.4,26.1s13.8,39.8,52.4,43.5v-7.2
	C271.8,339.3,262.1,308,262.1,308z M300.2,328.5v6.6c-21.4-3.8-27.4-26.1-27.4-26.1s10.3-11.4,27.4-13.3v7.3c0,0,0,0,0,0
	c-9-1.1-16,7.3-16,7.3S288.1,324.4,300.2,328.5 M300.2,268v12.5c0.8-0.1,1.6-0.1,2.5-0.1c32-1.1,52.8,26.2,52.8,26.2
	s-23.9,29.1-48.8,29.1c-2.3,0-4.4-0.2-6.4-0.6v7.8c1.7,0.2,3.5,0.3,5.4,0.3c23.2,0,39.9-11.8,56.2-25.8c2.7,2.2,13.7,7.4,16,9.7
	c-15.4,12.9-51.4,23.3-71.8,23.3c-2,0-3.9-0.1-5.7-0.3V361h88.1v-93H300.2z M300.2,295.8v-8.4c0.8-0.1,1.6-0.1,2.5-0.1
	c23-0.7,38,19.7,38,19.7s-16.3,22.6-33.7,22.6c-2.5,0-4.8-0.4-6.8-1.1V303c8.9,1.1,10.7,5,16.1,14l12-10.1c0,0-8.7-11.4-23.4-11.4
	C303.2,295.5,301.7,295.6,300.2,295.8"/>
</svg>
