<?xml version="1.0" encoding="utf-8"?>
<!-- Generator: Adobe Illustrator 26.0.1, SVG Export Plug-In . SVG Version: 6.00 Build 0)  -->
<svg version="1.1" id="Слой_1" xmlns="http://www.w3.org/2000/svg" xmlns:xlink="http://www.w3.org/1999/xlink" x="0px" y="0px"
	 viewBox="0 0 800 450" style="enable-background:new 0 0 800 450;" xml:space="preserve">
<style type="text/css">
	.st0{fill:#FFFFFF;}
</style>
<rect width="800" height="450"/>
<path class="st0" d="M39.1,15.2c-7.6,0-14.3,4.7-16.7,11.7c-4.9,1-9.1,3.9-11.6,8.1C7,41.3,7.9,49.2,13,54.7
	c-1.6,4.6-1,9.5,1.5,13.7c3.8,6.4,11.4,9.6,18.9,8.1c3.3,3.6,8,5.6,13,5.6c7.6,0,14.3-4.7,16.7-11.7c4.9-1,9.1-3.9,11.5-8.1
	c3.8-6.3,3-14.3-2.1-19.7v0c1.6-4.6,1-9.5-1.5-13.7c-3.8-6.3-11.4-9.6-18.8-8.1C48.8,17.2,44.1,15.1,39.1,15.2z M39.1,19.5
	L39.1,19.5c3,0,6,1,8.3,2.9c-0.1,0-0.3,0.2-0.4,0.2l-13.8,7.7c-0.7,0.4-1.1,1.1-1.1,1.9v18L26.1,47V32.1
	C26.1,25.1,31.9,19.5,39.1,19.5L39.1,19.5z M55.8,24.8c4.7,0,9,2.4,11.3,6.3c1.5,2.5,2.1,5.5,1.6,8.4c-0.1-0.1-0.3-0.2-0.4-0.2
	l-13.8-7.7c-0.7-0.4-1.6-0.4-2.3,0l-16.2,9v-6.6l13.4-7.4C51.3,25.3,53.5,24.8,55.8,24.8L55.8,24.8z M21.6,31.6v15.8
	c0,0.8,0.4,1.5,1.1,1.9l16.2,9l-6,3.3l-13.4-7.4c-6.2-3.5-8.3-11.1-4.7-17.1C16.3,34.6,18.7,32.6,21.6,31.6L21.6,31.6z M52.6,35.5
	l13.4,7.4c6.2,3.5,8.3,11.1,4.7,17.1l0,0c-1.5,2.5-3.9,4.5-6.8,5.5V49.7c0-0.8-0.4-1.5-1.1-1.9l-16.2-9L52.6,35.5z M42.7,41l6.8,3.8
	v7.6l-6.8,3.8l-6.8-3.8v-7.6L42.7,41z M53.5,47l5.9,3.3v14.9c0,6.9-5.8,12.5-13,12.5v0c-3,0-6-1-8.3-2.9c0.1,0,0.3-0.2,0.4-0.2
	l13.8-7.7c0.7-0.4,1.2-1.1,1.1-1.9L53.5,47z M49.6,56.7v6.6l-13.4,7.4C30,74.2,22,72.1,18.4,66.2h0c-1.5-2.5-2.1-5.5-1.6-8.4
	c0.1,0.1,0.3,0.2,0.4,0.2l13.8,7.7c0.7,0.4,1.6,0.4,2.3,0L49.6,56.7z"/>
<g>
	<path class="st0" d="M680.7,352l17-95.4c16.2,0,21.3,1.8,22,9c0,0,10.8-4,16.3-12.3c-21.3-9.9-42.8-10.3-42.8-10.3l-12.5,15.2l0,0
		L668.1,243c0,0-21.4,0.4-42.8,10.3c5.5,8.2,16.3,12.3,16.3,12.3c0.7-7.2,5.8-9,21.9-9L680.7,352"/>
	<path class="st0" d="M680.7,238.6c17.3-0.1,37,2.7,57.2,11.5c2.7-4.9,3.4-7,3.4-7c-22.1-8.7-42.8-11.7-60.6-11.8
		c-17.8,0.1-38.5,3.1-60.6,11.8c0,0,1,2.6,3.4,7C643.6,241.3,663.4,238.5,680.7,238.6L680.7,238.6"/>
</g>
<path id="path21" class="st0" d="M259.2,318.9c0,0,10.1-14.9,30.3-16.5V297c-22.4,1.8-41.7,20.7-41.7,20.7s11,31.7,41.7,34.6v-5.8
	C266.9,343.7,259.2,318.9,259.2,318.9z M289.5,335.1v5.3c-17.1-3-21.8-20.8-21.8-20.8s8.2-9.1,21.8-10.5v5.8c0,0,0,0,0,0
	c-7.1-0.9-12.7,5.8-12.7,5.8S279.9,331.9,289.5,335.1 M289.5,287v10c0.7-0.1,1.3-0.1,2-0.1c25.4-0.9,42,20.9,42,20.9
	s-19,23.1-38.8,23.1c-1.8,0-3.5-0.2-5.1-0.5v6.2c1.4,0.2,2.8,0.3,4.3,0.3c18.4,0,31.8-9.4,44.7-20.6c2.1,1.7,10.9,5.9,12.7,7.7
	c-12.3,10.3-40.9,18.6-57.1,18.6c-1.6,0-3.1-0.1-4.5-0.2v8.7h70.1v-74H289.5z M289.5,309.1v-6.7c0.6,0,1.3-0.1,2-0.1
	c18.3-0.6,30.3,15.7,30.3,15.7s-13,18-26.8,18c-2,0-3.8-0.3-5.4-0.9v-20.3c7.1,0.9,8.5,4,12.8,11.1l9.5-8c0,0-6.9-9.1-18.7-9.1
	C291.9,308.9,290.7,309,289.5,309.1"/>
<path class="st0" d="M470,53h22.4v22.4H470V53z"/>
<path class="st0" d="M494.6,53H517v22.4h-22.4V53z"/>
<path class="st0" d="M470,77.6h22.4V100H470V77.6z"/>
<path class="st0" d="M494.6,77.6H517V100h-22.4V77.6z"/>
</svg>
