<?xml version="1.0" encoding="utf-8"?>
<!-- Generator: Adobe Illustrator 26.0.1, SVG Export Plug-In . SVG Version: 6.00 Build 0)  -->
<svg version="1.1" id="Слой_1" xmlns="http://www.w3.org/2000/svg" xmlns:xlink="http://www.w3.org/1999/xlink" x="0px" y="0px"
	 viewBox="0 0 800 450" style="enable-background:new 0 0 800 450;" xml:space="preserve">
<style type="text/css">
	.st0{fill:#FFFFFF;}
</style>
<rect width="800" height="450"/>
<path class="st0" d="M50.1,15.2c-10.3,0-19.5,6.4-22.7,15.8c-6.6,1.3-12.4,5.3-15.7,11c-5.2,8.6-4,19.4,2.9,26.8
	c-2.1,6.2-1.4,12.9,2,18.5c5.1,8.6,15.5,13.1,25.6,11c4.5,4.9,10.9,7.7,17.7,7.6c10.3,0,19.5-6.4,22.7-15.8
	c6.6-1.3,12.4-5.3,15.7-11c5.2-8.6,4-19.4-2.9-26.8v0c2.1-6.2,1.4-13-2-18.6c-5.1-8.6-15.5-13-25.6-11
	C63.3,17.9,56.9,15.1,50.1,15.2z M50.1,21.1L50.1,21.1c4.1,0,8.1,1.4,11.3,4c-0.1,0.1-0.4,0.2-0.6,0.3L42,35.8
	c-1,0.5-1.5,1.5-1.5,2.6v24.5l-8.1-4.5V38.1C32.4,28.7,40.3,21.1,50.1,21.1L50.1,21.1z M72.7,28.2c6.3,0,12.2,3.2,15.4,8.5
	c2,3.4,2.8,7.5,2.1,11.4c-0.1-0.1-0.4-0.2-0.5-0.3L70.9,37.3c-1-0.5-2.1-0.5-3.1,0l-22,12.2v-9l18.2-10.1
	C66.6,29,69.6,28.2,72.7,28.2L72.7,28.2z M26.3,37.5V59c0,1.1,0.6,2,1.5,2.6l22,12.2l-8.1,4.5L23.5,68.2
	c-8.4-4.7-11.3-15.1-6.5-23.3C19.1,41.5,22.4,38.9,26.3,37.5L26.3,37.5z M68.4,42.8l18.2,10.1C95,57.6,97.9,68,93,76.2l0,0
	c-2.1,3.4-5.3,6.1-9.2,7.4V62.1c0-1.1-0.6-2.1-1.5-2.6l-22-12.2L68.4,42.8z M55,50.2l9.3,5.2v10.3L55,70.9l-9.3-5.2V55.4L55,50.2z
	 M69.6,58.4l8.1,4.5v20.2c0,9.4-7.9,17-17.7,17v0c-4.1,0-8.1-1.4-11.3-3.9c0.1-0.1,0.4-0.2,0.6-0.3l18.8-10.4c1-0.5,1.6-1.5,1.5-2.6
	L69.6,58.4z M64.3,71.6v9L46.1,90.7c-8.5,4.7-19.3,1.9-24.2-6.2h0c-2.1-3.4-2.8-7.5-2.1-11.4c0.1,0.1,0.4,0.2,0.5,0.3l18.8,10.5
	c1,0.5,2.1,0.5,3.1,0L64.3,71.6z"/>
<g>
	<path class="st0" d="M680.7,352l17-95.4c16.2,0,21.3,1.8,22,9c0,0,10.8-4,16.3-12.3c-21.3-9.9-42.8-10.3-42.8-10.3l-12.5,15.2l0,0
		L668.1,243c0,0-21.4,0.4-42.8,10.3c5.5,8.2,16.3,12.3,16.3,12.3c0.7-7.2,5.8-9,21.9-9L680.7,352"/>
	<path class="st0" d="M680.7,238.6c17.3-0.1,37,2.7,57.2,11.5c2.7-4.9,3.4-7,3.4-7c-22.1-8.7-42.8-11.7-60.6-11.8
		c-17.8,0.1-38.5,3.1-60.6,11.8c0,0,1,2.6,3.4,7C643.6,241.3,663.4,238.5,680.7,238.6L680.7,238.6"/>
</g>
<path id="path21" class="st0" d="M151.2,303.9c0,0,10.1-14.9,30.3-16.5V282c-22.4,1.8-41.7,20.7-41.7,20.7s11,31.7,41.7,34.6v-5.8
	C158.9,328.7,151.2,303.9,151.2,303.9z M181.5,320.1v5.3c-17.1-3-21.8-20.8-21.8-20.8s8.2-9.1,21.8-10.5v5.8c0,0,0,0,0,0
	c-7.1-0.9-12.7,5.8-12.7,5.8S171.9,316.9,181.5,320.1 M181.5,272v10c0.7-0.1,1.3-0.1,2-0.1c25.4-0.9,42,20.9,42,20.9
	s-19,23.1-38.8,23.1c-1.8,0-3.5-0.2-5.1-0.5v6.2c1.4,0.2,2.8,0.3,4.3,0.3c18.4,0,31.8-9.4,44.7-20.6c2.1,1.7,10.9,5.9,12.7,7.7
	c-12.3,10.3-40.9,18.6-57.1,18.6c-1.6,0-3.1-0.1-4.5-0.2v8.7h70.1v-74H181.5z M181.5,294.1v-6.7c0.6,0,1.3-0.1,2-0.1
	c18.3-0.6,30.3,15.7,30.3,15.7s-13,18-26.8,18c-2,0-3.8-0.3-5.4-0.9v-20.3c7.1,0.9,8.5,4,12.8,11.1l9.5-8c0,0-6.9-9.1-18.7-9.1
	C183.9,293.9,182.7,294,181.5,294.1"/>
</svg>
